<?xml version="1.0" encoding="UTF-8" standalone="no"?>
<!-- Created with Inkscape (http://www.inkscape.org/) -->

<svg
   xmlns:dc="http://purl.org/dc/elements/1.1/"
   xmlns:cc="http://creativecommons.org/ns#"
   xmlns:rdf="http://www.w3.org/1999/02/22-rdf-syntax-ns#"
   xmlns:svg="http://www.w3.org/2000/svg"
   xmlns="http://www.w3.org/2000/svg"
   xmlns:sodipodi="http://sodipodi.sourceforge.net/DTD/sodipodi-0.dtd"
   xmlns:inkscape="http://www.inkscape.org/namespaces/inkscape"
   width="500"
   height="500"
   viewBox="0 0 132.29167 132.29167"
   version="1.1"
   id="svg8"
   sodipodi:docname="evelyn-icon.svg"
   inkscape:export-filename="D:\GitHub\evelyn-ui\drawings\evelyn-icon.png"
   inkscape:export-xdpi="96"
   inkscape:export-ydpi="96"
   inkscape:version="0.92.2 (5c3e80d, 2017-08-06)">
  <defs
     id="defs2" />
  <sodipodi:namedview
     id="base"
     pagecolor="#ffffff"
     bordercolor="#666666"
     borderopacity="1.0"
     inkscape:pageopacity="0.0"
     inkscape:pageshadow="2"
     inkscape:zoom="1.4"
     inkscape:cx="215.26222"
     inkscape:cy="273.66119"
     inkscape:document-units="px"
     inkscape:current-layer="layer1"
     showgrid="false"
     units="px"
     inkscape:pagecheckerboard="true"
     inkscape:window-width="1920"
     inkscape:window-height="1017"
     inkscape:window-x="-8"
     inkscape:window-y="-8"
     inkscape:window-maximized="1" />
  <metadata
     id="metadata5">
    <rdf:RDF>
      <cc:Work
         rdf:about="">
        <dc:format>image/svg+xml</dc:format>
        <dc:type
           rdf:resource="http://purl.org/dc/dcmitype/StillImage" />
        <dc:title></dc:title>
      </cc:Work>
    </rdf:RDF>
  </metadata>
  <g
     inkscape:label="Layer 1"
     inkscape:groupmode="layer"
     id="layer1"
     transform="translate(0,-164.70834)">
    <path
       style="fill:none;stroke:#000000;stroke-width:0.26458335px;stroke-linecap:butt;stroke-linejoin:miter;stroke-opacity:1"
       d="m 44.790179,293.03126 h 30.616073 c 0,0 -7.748511,-20.22173 0.188989,-51.78274 0,0 -12.095239,-37.60863 3.212797,-52.53869"
       id="path3701"
       inkscape:connector-curvature="0" />
    <path
       style="fill:none;stroke:#000000;stroke-width:0.26458335px;stroke-linecap:butt;stroke-linejoin:miter;stroke-opacity:1"
       d="m 114.90476,221.40477 v 0 0"
       id="path3707"
       inkscape:connector-curvature="0" />
    <path
       style="fill:none;stroke:#000000;stroke-width:0.26458335px;stroke-linecap:butt;stroke-linejoin:miter;stroke-opacity:1"
       d="m 75.595241,241.24852 c 0,0 29.671129,-41.76637 47.247019,-28.91518 17.5759,12.85119 -7.9375,9.07143 -7.9375,9.07143 0,0 -4.34672,-2.45685 -8.88243,2.07887 -4.53572,4.53571 -30.526332,17.78683 -33.73913,38.38653"
       id="path3709"
       inkscape:connector-curvature="0"
       sodipodi:nodetypes="csccc" />
    <path
       style="fill:#66ff00;stroke-width:0.71428573"
       d="m 275.74014,348.55309 c 1.22435,-12.6034 6.81423,-43.81824 9.88959,-55.2252 2.97455,-11.03302 48.39201,-62.63611 74.34313,-84.46828 23.91139,-20.1162 45.24624,-32.21307 63.44165,-35.97143 11.26284,-2.3264 24.53241,-0.94287 33.23037,3.46473 5.30778,2.68965 16.93834,11.70139 22.32905,17.30128 10.24952,10.64721 10.26903,16.36708 0.0669,19.59107 -9.33241,2.94913 -36.47007,2.48993 -47.17944,-0.79833 -5.84734,-1.7954 -11.87682,-1.77408 -17.32494,0.0613 -5.37837,1.81184 -8.56203,3.80468 -14.32756,8.96847 -2.48724,2.22765 -11.11154,8.7286 -19.16512,14.44655 -27.0248,19.18732 -40.09095,29.35607 -53.76902,41.84582 -23.82021,21.75076 -41.05697,45.6176 -49.57307,68.6412 l -2.37784,6.42857 z"
       id="path3711"
       inkscape:connector-curvature="0"
       transform="matrix(0.26458334,0,0,0.26458334,0,164.70834)" />
    <path
       style="fill:none;stroke:#000000;stroke-width:0.26458335px;stroke-linecap:butt;stroke-linejoin:miter;stroke-opacity:1"
       d="m 78.808037,188.70983 c 0,0 23.688643,-17.07062 34.962793,-5.10268 12.28423,13.04018 11.33929,-5.10268 11.33929,-5.10268 0,0 -7.71622,-15.99068 -38.742559,-6.04762 -33.155937,10.62553 -29.860119,34.39584 -29.860119,34.39584 0,0 -17.575893,-38.1756 -42.144346,-22.11161 -24.568454,16.06399 5.291667,7.37053 5.291667,7.37053 0,0 14.741072,-4.91369 30.049107,19.46577 15.308036,24.37947 -1.133928,42.90031 -1.133928,42.90031 0,0 -15.119048,-31.18304 -33.639882,-17.95387 -18.5208339,13.22916 6.047619,5.66964 6.047619,5.66964 0,0 18.142858,2.07887 24.001489,26.64732 5.858631,24.56846 -0.188989,24.19048 -0.188989,24.19048"
       id="path3713"
       inkscape:connector-curvature="0"
       sodipodi:nodetypes="cscscscscscsc" />
    <path
       style="fill:#66ff00;stroke-width:0.71428573"
       d="m 174.83432,482.63414 c 8.64409,-9.55162 6.82901,-45.71701 -4.57171,-91.09134 -3.49946,-13.92768 -6.8581,-23.06019 -13.18333,-35.84685 -7.4679,-15.09661 -13.27037,-23.3041 -24.24904,-34.29984 -12.94021,-12.96033 -26.87523,-21.67391 -42.707385,-26.70495 -8.721196,-2.77137 -10.72282,-2.83018 -18.721978,-0.5501 -7.811171,2.22649 -22.58932,5.21715 -28.959199,5.86048 -5.108383,0.51592 -10.512167,-0.52757 -11.134821,-2.15018 -1.175575,-3.0635 6.554113,-11.44403 19.597595,-21.24773 13.868637,-10.4239 22.82794,-14.59051 34.915771,-16.23792 11.813847,-1.61007 25.437397,1.7546 37.909187,9.36258 19.61127,11.96317 40.87994,36.45247 56.5546,65.11843 2.94268,5.38159 3.09888,5.53585 4.40691,4.3521 2.69611,-2.43995 10.14406,-14.41487 14.61789,-23.50287 5.30983,-10.78623 8.83666,-21.13087 11.53177,-33.82421 1.73185,-8.15655 1.92121,-10.5229 1.95183,-24.39008 0.0381,-17.25832 -0.87618,-24.29753 -5.0148,-38.60977 -4.635,-16.02886 -11.60285,-30.56271 -22.75415,-47.46165 -16.01804,-24.27411 -32.1359,-41.59431 -49.6213,-53.32286 -13.66683,-9.16718 -25.31753,-13.98527 -38.791898,-16.04219 -9.470067,-1.44565 -16.105062,-0.92268 -28.066528,2.21217 -27.112922,7.10572 -44.541302,9.06339 -48.944652,5.49777 -1.293074,-1.04707 -1.397143,-1.50655 -0.735424,-3.247 1.209298,-3.1807 8.947473,-10.783624 17.537219,-17.230695 28.543943,-21.423806 45.241732,-28.245371 66.785713,-27.284041 18.44103,0.822872 35.83062,8.297556 53.57143,23.026977 7.33889,6.093164 19.25571,18.472809 26.25804,27.277859 9.25945,11.64327 22.42337,32.2271 28.09662,43.93343 0.90436,1.86608 1.98203,3.39176 2.39482,3.39041 0.47974,-0.001 0.78753,-3.28733 0.8531,-9.10714 0.16507,-14.65177 3.43978,-27.8909 10.59294,-42.82557 18.56903,-38.769194 59.1578,-66.980787 118.48597,-82.354746 19.89837,-5.156351 34.18379,-7.150502 51.67737,-7.213826 22.92247,-0.08298 38.37475,3.581056 54.98551,13.038109 5.93587,3.379487 15.12798,11.550295 19.13507,17.009034 2.46795,3.362025 2.52056,3.575763 2.52056,10.239453 0,17.148579 -5.11047,28.69864 -13.09634,29.598765 -6.69402,0.754515 -13.99019,-3.484245 -26.09522,-15.160191 -8.99011,-8.67145 -14.63136,-12.48378 -22.09967,-14.934851 -8.61091,-2.826074 -14.36933,-3.537319 -24.75741,-3.057885 -14.53195,0.670683 -29.40157,4.557202 -47.47903,12.409749 -15.43325,6.703941 -36.18557,18.628269 -42.2291,24.264935 -6.91377,6.448315 -15.16552,20.083734 -19.52259,32.259654 -13.11928,36.66214 -11.15187,93.4694 5.3611,154.79705 l 2.8934,10.74579 -2.59195,11.60606 c -11.42253,51.14709 -13.76971,105.89776 -6.38961,149.0452 1.78692,10.44712 4.44545,22.4661 6.28034,28.39286 l 1.71383,5.53572 h -55.03315 c -52.79603,0 -54.98621,-0.0519 -53.8783,-1.2761 z"
       id="path3715"
       inkscape:connector-curvature="0"
       inkscape:export-xdpi="96"
       inkscape:export-ydpi="96"
       transform="matrix(0.26458334,0,0,0.26458334,0,164.70834)" />
  </g>
</svg>
